<?xml version="1.0" encoding="UTF-8" standalone="no"?>
<svg width="164px" height="43px" viewBox="0 0 164 43" version="1.1" xmlns="http://www.w3.org/2000/svg" xmlns:xlink="http://www.w3.org/1999/xlink">
    <!-- Generator: Sketch 42 (36781) - http://www.bohemiancoding.com/sketch -->
    <title>Logo Jenius</title>
    <desc>Created with Sketch.</desc>
    <defs></defs>
    <g id="Page-1" stroke="none" stroke-width="1" fill="none" fill-rule="evenodd">
        <g id="Home-3-Copy-9" transform="translate(-171.000000, -4829.000000)" fill="#FFFFFF">
            <g id="Group-25" transform="translate(1.000000, 4773.000000)">
                <g transform="translate(140.000000, 56.000000)" id="Group-22">
                    <g transform="translate(30.000000, 0.000000)">
                        <g id="Logo-Jenius">
                            <path d="M59.9048085,32.7440676 C59.9048085,35.9660021 57.9109345,37.7754462 53.6700291,37.911181 L53.6700291,42.8163686 C58.4903686,42.8163686 64.5909814,40.1370199 64.5909814,32.7440676 L64.5909814,8.70415895 L59.9048085,8.70415895 L59.9048085,32.7440676 L59.9048085,32.7440676 Z" id="Fill-1"></path>
                            <path d="M87.6095853,19.0572261 C87.6095853,22.1434258 86.2406723,23.3311054 83.3117712,23.3311054 L73.4331105,23.3311054 C73.8394041,25.9546049 75.5114852,28.5031675 79.1550217,28.5031675 C81.0554274,28.5031675 82.9968764,27.8202517 85.0452447,26.5017859 L87.4364449,30.3172068 C84.1988571,32.6787805 81.3679079,33.2259615 79.1550217,33.2259615 C70.9512013,33.2259615 68.4782595,27.0910306 68.4782595,20.735884 C68.4782595,14.3810909 70.9098131,8.25075517 78.04375,8.25075517 C85.5767375,8.25075517 87.6095853,15.2464004 87.6095853,19.0572261 Z M73.3921707,18.612942 L82.6865687,18.612942 C82.3896088,15.6062744 81.1376174,12.9781797 78.0438534,12.9781797 C74.9456058,12.9781797 73.7025818,15.6062744 73.3921707,18.612942 Z" id="Combined-Shape"></path>
                            <path d="M100.378173,8.25549175 C94.5289935,8.25549175 91.5128324,13.2027431 91.5128324,13.2027431 L91.5128324,32.9496846 L96.2148707,32.9496846 L96.2148707,14.7926785 C96.2148707,14.7926785 97.6724233,12.9779323 100.378173,12.9779323 C103.34191,12.9779323 104.984329,15.4752408 104.984329,17.6964845 L104.984329,32.9496846 L109.681539,32.9496846 L109.681539,17.6964845 C109.681539,13.1090719 106.540179,8.25549175 100.378173,8.25549175" id="Fill-7"></path>
                            <polygon id="Fill-9" points="114.894445 32.949826 119.589585 32.949826 119.589585 8.53134449 114.894445 8.53134449"></polygon>
                            <path d="M155.105305,18.1500297 L155.148763,18.1500297 C153.549456,17.6965199 151.469012,16.8828179 151.469012,15.20416 C151.469012,13.9836071 152.716864,12.9779676 155.062193,12.9779676 C157.40959,12.9779676 160.062915,14.0627857 161.091756,14.5587127 L162.599664,10.2473648 C161.0414,9.4336629 157.897971,8.2555271 155.062193,8.2555271 C150.989944,8.2555271 146.730759,10.3876949 146.730759,15.20416 C146.730759,19.6508892 150.542952,21.8721329 154.313757,22.8353552 C156.342121,23.2842699 158.915429,24.1541745 158.915429,25.8657057 C158.915429,27.6892888 156.825673,28.4980421 154.799723,28.4980421 C152.801365,28.4980421 150.068368,27.184525 147.983095,26.0480994 L146.151325,30.546436 C148.15658,31.5845953 151.080998,33.1275184 154.799723,33.2257848 C159.084086,33.2257848 163.610225,31.1310855 163.610225,25.8657057 C163.610225,20.7922634 158.652959,19.0570493 155.105305,18.1500297" id="Fill-11"></path>
                            <path d="M138.401498,23.7846153 C138.401498,25.9966686 136.763562,28.4890285 133.811208,28.5031675 C130.861612,28.4890285 129.239887,25.9966686 129.239887,23.7846153 L129.239887,8.53141519 L124.544402,8.53141519 L124.544402,23.7846153 C124.544402,28.3532937 127.67438,33.2022786 133.788444,33.2259615 L133.843283,33.2259615 C139.966315,33.2022786 143.087326,28.3532937 143.087326,23.7846153 L143.087326,8.53141519 L138.401498,8.53141519 L138.401498,23.7846153 Z" id="Fill-12"></path>
                            <path d="M45.6194955,20.3310582 C45.6194955,31.2458394 37.0184159,39.6017888 27.2428097,39.6017888 C26.0568482,39.6017888 24.8896726,39.504847 23.7715037,39.3221657 C22.2665904,39.7271668 20.6436528,40.120535 18.9361786,40.120535 C8.58474401,40.120535 0,33.7654636 0,23.1294438 C0,16.2724295 4.45184789,9.99749668 10.5352096,7.18144607 C14.3899929,2.09738898 20.9164566,-1.0658141e-14 25.5002141,-1.0658141e-14 C37.1294977,-1.0658141e-14 45.6194955,9.06814828 45.6194955,20.3310582 Z M26.9695975,2.0004903 C23.2365142,2.0004903 19.5303845,3.39128151 16.6941233,5.64851669 C16.9073023,5.64248476 17.272402,5.6312826 17.4831307,5.6312826 C20.2871292,5.6312826 22.8072974,6.31547604 24.8574099,7.5920914 C24.8574099,7.5920914 36.0137791,11.9122474 36.0137791,23.9670638 C36.0137791,29.3820154 33.1423964,34.3635297 28.5202503,37.259288 C35.9112735,35.7771561 42.2862249,28.4074275 42.2862249,18.8946397 C42.2862249,10.7269727 35.7005448,2.0004903 26.9695975,2.0004903 Z M18.5039397,8.15064831 C13.8360541,8.15064831 10.2328384,12.4022988 10.2328384,17.515223 C10.2328384,23.722512 14.2142223,28.0883383 18.6799554,28.0883383 C23.6578082,28.0883383 27.2291695,23.9672361 27.2291695,17.8116494 C27.2291695,13.2519395 23.4176755,8.15064831 18.5039397,8.15064831 Z M17.8448816,38.205138 C18.3986571,38.205138 18.9524325,38.1711007 19.5062079,38.0969941 C11.9534627,34.9793469 7.12589702,27.2791546 7.12589702,17.9882557 C7.12589702,17.298892 7.16959464,16.6431348 7.23412009,15.9878085 C7.40155956,14.2264843 7.77441866,12.7275492 8.33636185,11.4905722 C5.18155725,14.3234261 3.93882969,18.512603 3.93882969,22.7134128 C3.93882969,31.3084853 11.0754265,38.205138 17.8448816,38.205138 Z M22.9096397,37.2306794 C28.6446456,35.0018804 33.0425862,29.2336299 33.0425862,23.0379739 C33.0425862,18.6264772 31.518887,15.0185201 29.1142929,12.4368531 C29.1142929,12.4368531 30.2545148,14.6596201 30.2545148,18.0564596 C30.2545148,24.9535432 24.7710765,29.626998 19.0062581,29.626998 C15.4083515,29.626998 12.5720903,28.2133717 10.594671,26.173286 C12.599044,31.5365354 17.245285,36.0622079 22.9096397,37.2306794 Z" id="Combined-Shape"></path>
                        </g>
                    </g>
                </g>
            </g>
        </g>
    </g>
</svg>